<svg width="140" height="134" viewBox="0 0 140 134" fill="none" xmlns="http://www.w3.org/2000/svg">
<path d="M63.9019 3.81903C66.5795 -0.931482 73.4205 -0.931489 76.0981 3.81902L93.8192 35.2595C94.8181 37.0318 96.5386 38.2818 98.5328 38.6841L133.911 45.8223C139.256 46.9009 141.37 53.407 137.679 57.4215L113.254 83.991C111.877 85.4886 111.22 87.5112 111.453 89.5321L115.597 125.384C116.223 130.801 110.689 134.822 105.73 132.553L72.9131 117.533C71.0633 116.687 68.9367 116.687 67.0869 117.533L34.2699 132.553C29.3114 134.822 23.7769 130.801 24.403 125.384L28.5465 89.5321C28.7801 87.5112 28.1229 85.4886 26.7461 83.991L2.32058 57.4215C-1.37 53.407 0.743958 46.9009 6.08938 45.8223L41.4672 38.6841C43.4614 38.2818 45.1819 37.0318 46.1808 35.2595L63.9019 3.81903Z" fill="#FFDE88"/>
</svg>
