{
  "asset": {
    "version": "2.0",
    "generator": "THREE.GLTFExporter r167"
  },
  "scenes": [
    {
      "name": "Scene",
      "nodes": [
        4
      ]
    }
  ],
  "scene": 0,
  "nodes": [
    {
      "matrix": [
        -0.29086462589180684,
        -0.05518903353397775,
        -0.9551711964083935,
        0,
        -0.7711009137257037,
        0.6045246461343226,
        0.19988335568841364,
        0,
        0.566393171500188,
        0.7946723511029319,
        -0.21839116272315806,
        0,
        4.076245307922363,
        5.903861999511719,
        -1.0054539442062378,
        1
      ],
      "name": "Light",
      "extras": {
        "name": "Light"
      },
      "extensions": {
        "KHR_lights_punctual": {
          "light": 0
        }
      }
    },
    {
      "matrix": [
        0.6859206347797677,
        -1.9112529336950956e-8,
        -0.7276763573390443,
        0,
        -0.32401346065627035,
        0.8953956546680355,
        -0.305420854447231,
        0,
        0.6515582539909754,
        0.4452714015268988,
        0.6141703497279187,
        0,
        7.358891487121582,
        4.958309173583984,
        6.925790786743164,
        1
      ],
      "name": "Camera",
      "extras": {
        "name": "Camera"
      },
      "camera": 0
    },
    {
      "matrix": [
        0,
        0,
        0.5331171154975891,
        0,
        0.8242944478988647,
        0,
        0,
        0,
        0,
        0.5331171154975891,
        0,
        0,
        0.022496169432997704,
        1,
        0,
        1
      ],
      "name": "innerstar",
      "extras": {
        "name": "innerstar"
      },
      "mesh": 0
    },
    {
      "matrix": [
        0,
        0,
        1,
        0,
        1,
        0,
        0,
        0,
        0,
        1,
        0,
        0,
        0,
        1,
        0,
        1
      ],
      "name": "Outer_STar",
      "extras": {
        "name": "Outer STar"
      },
      "mesh": 1
    },
    {
      "name": "starredo.gltf",
      "children": [
        0,
        1,
        2,
        3
      ]
    }
  ],
  "extensions": {
    "KHR_lights_punctual": {
      "lights": [
        {
          "name": "Light",
          "color": [
            1,
            1,
            1
          ],
          "intensity": 1000,
          "type": "point"
        }
      ]
    }
  },
  "cameras": [
    {
      "type": "perspective",
      "perspective": {
        "aspectRatio": 1.7004716981132075,
        "yfov": 0.39959648408210363,
        "zfar": 100,
        "znear": 0.10000000149011612
      },
      "name": "PerspectiveCamera"
    }
  ],
  "bufferViews": [
    {
      "buffer": 0,
      "byteOffset": 0,
      "byteLength": 445356,
      "target": 34962,
      "byteStride": 12
    },
    {
      "buffer": 0,
      "byteOffset": 445356,
      "byteLength": 445356,
      "target": 34962,
      "byteStride": 12
    },
    {
      "buffer": 0,
      "byteOffset": 890712,
      "byteLength": 296904,
      "target": 34962,
      "byteStride": 8
    },
    {
      "buffer": 0,
      "byteOffset": 1187616,
      "byteLength": 111360,
      "target": 34963
    },
    {
      "buffer": 0,
      "byteOffset": 1298976,
      "byteLength": 541680,
      "target": 34962,
      "byteStride": 12
    },
    {
      "buffer": 0,
      "byteOffset": 1840656,
      "byteLength": 541680,
      "target": 34962,
      "byteStride": 12
    },
    {
      "buffer": 0,
      "byteOffset": 2382336,
      "byteLength": 361120,
      "target": 34962,
      "byteStride": 8
    },
    {
      "buffer": 0,
      "byteOffset": 2743456,
      "byteLength": 137640,
      "target": 34963
    }
  ],
  "buffers": [
    {
      "byteLength": 2881096,
      "uri": "data:application/octet-stream;base64,"
    }
  ],
  "accessors": [
    {
      "bufferView": 0,
      "componentType": 5126,
      "count": 37113,
      "max": [
        0.8946107029914856,
        0.26913195848464966,
        0.9394472241401672
      ],
      "min": [
        -0.8946107029914856,
        0,
        -0.764671802520752
      ],
      "type": "VEC3"
    },
    {
      "bufferView": 1,
      "componentType": 5126,
      "count": 37113,
      "max": [
        0.9996075630187988,
        1,
        0.9915685057640076
      ],
      "min": [
        -0.9996075630187988,
        -1,
        -0.9994670748710632
      ],
      "type": "VEC3"
    },
    {
      "bufferView": 2,
      "componentType": 5126,
      "count": 37113,
      "max": [
        1.0030547380447388,
        1
      ],
      "min": [
        -0.0030546621419489384,
        -0.02502262592315674
      ],
      "type": "VEC2"
    },
    {
      "bufferView": 3,
      "componentType": 5123,
      "count": 55680,
      "max": [
        37112
      ],
      "min": [
        0
      ],
      "type": "SCALAR"
    },
    {
      "bufferView": 4,
      "componentType": 5126,
      "count": 45140,
      "max": [
        0.8946107029914856,
        0.26753896474838257,
        0.9394472241401672
      ],
      "min": [
        -0.8946107029914856,
        0.0017460309900343418,
        -0.764671802520752
      ],
      "type": "VEC3"
    },
    {
      "bufferView": 5,
      "componentType": 5126,
      "count": 45140,
      "max": [
        0.999931812286377,
        0.9996374249458313,
        0.9996834397315979
      ],
      "min": [
        -0.999931812286377,
        -0.9996374249458313,
        -0.9994670748710632
      ],
      "type": "VEC3"
    },
    {
      "bufferView": 6,
      "componentType": 5126,
      "count": 45140,
      "max": [
        1.0030547380447388,
        1
      ],
      "min": [
        -0.0030546621419489384,
        -0.02502262592315674
      ],
      "type": "VEC2"
    },
    {
      "bufferView": 7,
      "componentType": 5123,
      "count": 68820,
      "max": [
        45139
      ],
      "min": [
        0
      ],
      "type": "SCALAR"
    }
  ],
  "materials": [
    {
      "pbrMetallicRoughness": {
        "baseColorFactor": [
          1,
          0.08437621153575764,
          0.7379104087672317,
          1
        ],
        "metallicFactor": 0.949999988079071,
        "roughnessFactor": 0.22499999403953552
      },
      "emissiveFactor": [
        0.026241221889696346,
        0.057805430183792694,
        0.06480326668529614
      ],
      "doubleSided": true,
      "name": "innergradient",
      "extensions": {
        "KHR_materials_transmission": {
          "transmissionFactor": 1
        },
        "KHR_materials_volume": {
          "thicknessFactor": 0,
          "attenuationDistance": null,
          "attenuationColor": [
            1,
            1,
            1
          ]
        }
      }
    },
    {
      "pbrMetallicRoughness": {
        "baseColorFactor": [
          0.004776953478513362,
          1,
          0.7681511472425808,
          1
        ],
        "metallicFactor": 0.949999988079071,
        "roughnessFactor": 0.22500000894069672
      },
      "emissiveFactor": [
        0.030713443727452196,
        0.01764195448412081,
        0.03954623527052923
      ],
      "doubleSided": true,
      "name": "outergradient",
      "extensions": {
        "KHR_materials_transmission": {
          "transmissionFactor": 1
        },
        "KHR_materials_volume": {
          "thicknessFactor": 0,
          "attenuationDistance": null,
          "attenuationColor": [
            1,
            1,
            1
          ]
        },
        "KHR_materials_emissive_strength": {
          "emissiveStrength": 4.2
        }
      }
    }
  ],
  "meshes": [
    {
      "primitives": [
        {
          "mode": 4,
          "attributes": {
            "POSITION": 0,
            "NORMAL": 1,
            "TEXCOORD_0": 2
          },
          "indices": 3,
          "material": 0
        }
      ]
    },
    {
      "primitives": [
        {
          "mode": 4,
          "attributes": {
            "POSITION": 4,
            "NORMAL": 5,
            "TEXCOORD_0": 6
          },
          "indices": 7,
          "material": 1
        }
      ]
    }
  ],
  "extensionsUsed": [
    "KHR_lights_punctual",
    "KHR_materials_transmission",
    "KHR_materials_volume",
    "KHR_materials_emissive_strength"
  ]
}